# xmcd
#
# Track frame offsets:
#	150
#	18445
#	35592
#	53180
#	67652
#	86152
#	103685
#	122395
#	139122
#	158247
#	172965
#	190655
#	207190
#
# Disc length: 2997 seconds
#
# Revision: 0
# Processed by: cddbd v1.4b42PL1 Copyright (c) Steve Scherf et al.
# Submitted via: EasyCDDAExtractor 4.5.0.1
#
DISCID=a50bb30d
DTITLE=Tauski - Taivaassa tavanneet
DYEAR=1997
DGENRE=Pop
TTITLE0=Taivaassa tavanneet
TTITLE1=Niin minä sinulle kuulun
TTITLE2=Myrskylinnun tie
TTITLE3=Tuulien poika
TTITLE4=Kesä kyynelehtii
TTITLE5=Tyttö kuin taivas
TTITLE6=Minun koti
TTITLE7=Kultainen maa
TTITLE8=Rakastan sua
TTITLE9=Jos jäät
TTITLE10=He kuuluvat toisilleen
TTITLE11=Enkelin silmät
TTITLE12=Niin minä sinulle kuulun (remix)
EXTD=
EXTT0=
EXTT1=
EXTT2=
EXTT3=
EXTT4=
EXTT5=
EXTT6=
EXTT7=
EXTT8=
EXTT9=
EXTT10=
EXTT11=
EXTT12=
PLAYORDER=
